:SAMPLES-PER-SECOND 30
:FULLY-SPECIFIED
:DEGREES
337
root  65.0681 37.792 5.29487 -178.054 -60.5679 174.857
RightUpLeg  -16.7884 3.95921 -6.80732
RightLeg  29.4232 7.62386 4.39551
RightFoot  -10.1149 -0.0675719 -0.0997545
RightToes  -2.32831e-009 0 -3.6325e-017
Spine  19.9286 -2.89656 5.3329
Spine1  -0.226906 -3.91637 8.75328
HEad  -40.373 47.6786 -33.4948
LeftShoulder1  0.247072 2.71284 -25.1264
LeftArm  1.11003 17.4628 -42.7828
LeftForeArm  29.2579 -37.276 -6.74079
LeftHand  -0.0713038 8.01886 -1.146
RightShoulder  -0.986633 -7.51435 17.6987
RightArm  -52.89 -13.666 5.70879
RightForeArm  132.686 62.8643 157.106
RightHand  -0.669192 10.8939 -5.18113
LeftUpLeg  -23.621 24.1737 5.37375
LeftLeg  33.9283 1.68107 1.53752
LeftFoot  -1.18625 0.647739 -7.21639
LeftToes  8.91272e-011 -1.70619e-011 7.36378e-012
338
root  64.473 37.7058 5.56808 -177.212 -59.647 174.274
RightUpLeg  -17.1453 5.06186 -8.06642
RightLeg  30.3078 7.55785 4.51464
RightFoot  -11.2907 -0.0758908 0.541497
RightToes  -2.32831e-009 0 -3.6325e-017
Spine  20.8226 -3.18214 3.69686
Spine1  -0.77902 -4.59735 9.86316
HEad  -42.2946 50.1159 -36.1532
LeftShoulder1  0.471615 1.92668 -23.6094
LeftArm  2.04974 18.7696 -41.9278
LeftForeArm  30.6772 -41.3277 -7.83837
LeftHand  -0.0471029 8.07438 -0.121679
RightShoulder  -0.999883 -7.7523 16.5874
RightArm  -56.9788 -17.2919 4.37891
RightForeArm  134.517 58.328 160.875
RightHand  -0.54544 12.2148 -4.01899
LeftUpLeg  -22.7539 24.0473 5.72577
LeftLeg  26.9603 4.31319 2.7372
LeftFoot  -1.24258 0.636978 -7.10455
LeftToes  8.91272e-011 -1.70619e-011 7.36378e-012
339
root  63.8693 37.4552 5.84881 -176.674 -59.1207 173.954
RightUpLeg  -17.9576 5.99099 -9.24513
RightLeg  32.4538 7.21471 4.68157
RightFoot  -13.324 -0.0634845 1.51017
RightToes  -2.32831e-009 0 -3.6325e-017
Spine  22.5479 -2.9635 1.28477
Spine1  -2.5492 -5.04997 12.7922
HEad  -43.2987 52.1295 -38.5297
LeftShoulder1  0.70046 1.05574 -22.2653
LeftArm  7.53525 20.533 -39.4215
LeftForeArm  31.4377 -47.0444 -9.76158
LeftHand  -0.0207422 7.46921 1.15254
RightShoulder  -1.03303 -8.20377 14.9006
RightArm  -60.917 -21.7414 2.6006
RightForeArm  133.884 54.0838 163.463
RightHand  -0.567949 13.4843 -3.91357
LeftUpLeg  -23.0555 24.8362 5.70161
LeftLeg  24.1172 6.14353 3.35079
LeftFoot  -2.01173 0.53284 -6.37717
LeftToes  8.91272e-011 -1.70619e-011 7.36378e-012
340
root  63.2141 36.9951 6.17468 -176.123 -59.2001 173.945
RightUpLeg  -19.6823 6.12816 -10.4514
RightLeg  36.1971 6.97466 5.20436
RightFoot  -15.9486 -0.0199243 2.22187
RightToes  -2.32831e-009 0 -3.6325e-017
Spine  23.0568 -3.30179 -0.52608
Spine1  -2.76265 -6.07827 15.1714
HEad  -50.6164 52.2011 -43.6144
LeftShoulder1  0.754944 0.726042 -20.7109
LeftArm  14.7508 21.8272 -35.4102
LeftForeArm  34.801 -54.8132 -13.1485
LeftHand  0.00154464 7.03925 2.53715
RightShoulder  -1.02749 -8.5214 13.2755
RightArm  -65.2151 -25.3576 2.24479
RightForeArm  132.213 50.7235 165.079
RightHand  -0.851099 13.9729 -5.52398
LeftUpLeg  -25.113 25.7413 4.98586
LeftLeg  25.5047 6.95119 3.93136
LeftFoot  -1.3353 0.577769 -6.56883
LeftToes  8.91272e-011 -1.70619e-011 7.36378e-012
341
root  62.5206 36.4381 6.49176 -176.536 -59.0908 174.211
RightUpLeg  -20.8098 6.5059 -11.4523
RightLeg  40.3643 6.69814 5.79082
RightFoot  -18.6213 0.0473159 2.70532
RightToes  -2.32831e-009 0 -3.6325e-017
Spine  24.0192 -3.24037 -2.14713
Spine1  -3.14462 -6.6792 17.7425
HEad  -57.1266 49.4585 -47.0499
LeftShoulder1  0.710821 0.922204 -21.1185
LeftArm  21.9423 22.5094 -29.1996
LeftForeArm  39.6989 -62.7219 -17.9435
LeftHand  -0.0277427 6.56749 0.874185
RightShoulder  -0.884895 -8.46805 10.3483
RightArm  -68.9719 -30.4631 2.98693
RightForeArm  128.986 47.9492 166.151
RightHand  -1.02237 14.2037 -6.49125
LeftUpLeg  -27.1917 27.9987 4.12925
LeftLeg  29.8382 5.17491 3.53558
LeftFoot  -0.446269 0.399406 -4.01621
LeftToes  8.91272e-011 -1.70619e-011 7.36378e-012
342
root  61.79 35.7677 6.8087 -177.93 -59.5188 174.887
RightUpLeg  -21.137 6.92731 -12.17
RightLeg  44.7692 6.01496 6.05451
RightFoot  -21.7586 0.176071 3.55512
RightToes  -2.32831e-009 0 -3.6325e-017
Spine  24.6469 -3.23245 -3.19721
Spine1  -2.48432 -7.26482 19.3741
HEad  -61.4445 49.2355 -50.8555
LeftShoulder1  0.532092 1.55753 -20.8633
LeftArm  25.4496 24.6698 -26.3713
LeftForeArm  38.2165 -65.8405 -21.4131
LeftHand  -0.0215163 5.63239 2.48871
RightShoulder  -0.771079 -8.39135 8.15614
RightArm  -72.7185 -34.7279 4.59321
RightForeArm  128.849 45.6593 167.078
RightHand  -0.724499 15.2239 -4.51064
LeftUpLeg  -29.8156 29.2056 3.67601
LeftLeg  37.2602 3.59988 3.32095
LeftFoot  -3.13565 -0.00633754 0.288336
LeftToes  8.91272e-011 -1.70619e-011 7.36378e-012
343
root  60.9327 34.9751 7.12004 179.371 -60.6605 176.723
RightUpLeg  -20.579 6.92708 -12.3403
RightLeg  49.1322 5.32597 6.22962
RightFoot  -25.4239 0.346851 4.19968
RightToes  -2.32831e-009 0 -3.6325e-017
Spine  24.8145 -3.00816 -2.97545
Spine1  -1.47107 -7.52514 21.1569
HEad  -67.463 49.1464 -55.9063
LeftShoulder1  0.390621 2.03888 -20.2586
LeftArm  25.2903 29.1804 -26.8573
LeftForeArm  32.9813 -66.105 -22.5195
LeftHand  -0.0176853 5.60733 3.67356
RightShoulder  -0.897228 -9.24349 7.93298
RightArm  -76.3424 -37.2455 6.39408
RightForeArm  129.014 43.2475 168.004
RightHand  -0.775615 15.2701 -4.79239
LeftUpLeg  -31.8948 28.2307 4.54237
LeftLeg  45.1048 2.87281 3.51108
LeftFoot  -6.20276 -0.0277147 1.43244
LeftToes  8.91272e-011 -1.70619e-011 7.36378e-012
344
root  60.0185 34.3221 7.34476 177.909 -62.6852 177.452
RightUpLeg  -19.1717 6.24367 -13.0896
RightLeg  52.2983 4.69777 6.11957
RightFoot  -28.8632 0.601162 5.16905
RightToes  -2.32831e-009 0 -3.6325e-017
Spine  24.6718 -2.74926 -3.16871
Spine1  -1.64721 -7.45648 22.2912
HEad  -69.4736 46.2962 -56.1566
LeftShoulder1  0.164372 2.9149 -21.4849
LeftArm  24.7499 34.2193 -26.6881
LeftForeArm  36.0347 -65.1905 -21.06
LeftHand  -0.0359447 4.9378 2.88741
RightShoulder  -1.08955 -10.0007 9.22496
RightArm  -78.8987 -37.6932 7.41218
RightForeArm  130.197 41.8896 168.538
RightHand  -0.569951 15.5809 -3.61294
LeftUpLeg  -33.2806 26.5248 4.4843
LeftLeg  51.1306 2.49045 3.77806
LeftFoot  -9.13479 0.0103903 2.2441
LeftToes  8.91272e-011 -1.70619e-011 7.36378e-012
345
root  59.1614 33.9169 7.46413 176.671 -65.9795 178.183
RightUpLeg  -16.6392 5.21126 -13.5207
RightLeg  53.6556 3.6786 4.96662
RightFoot  -31.4484 0.951009 6.56281
RightToes  -2.32831e-009 0 -3.6325e-017
Spine  23.7409 -1.85736 -4.09611
Spine1  -2.06454 -6.87787 23.9985
HEad  -66.6507 44.1199 -53.3514
LeftShoulder1  -0.0324637 3.61545 -22.6563
LeftArm  23.6716 38.8113 -27.6798
LeftForeArm  37.7867 -62.415 -17.9765
LeftHand  -0.013931 6.61686 1.92768
RightShoulder  -1.27413 -10.6578 10.3361
RightArm  -81.7339 -36.928 9.4323
RightForeArm  135.056 41.0261 169.068
RightHand  -0.303774 15.7744 -2.12658
LeftUpLeg  -33.7713 23.8045 4.119
LeftLeg  54.811 2.13264 3.75695
LeftFoot  -11.8507 0.0847037 2.82105
LeftToes  8.91272e-011 -1.70619e-011 7.36378e-012
346
root  58.3257 33.8618 7.45965 174.733 -71.8791 179.767
RightUpLeg  -11.8761 2.81708 -13.0498
RightLeg  52.3509 2.0627 2.49348
RightFoot  -33.1537 1.33466 8.09321
RightToes  -2.32831e-009 0 -3.6325e-017
Spine  22.6802 -1.16375 -4.293
Spine1  -3.44907 -5.98942 25.0535
HEad  -56.6732 40.9244 -39.9037
LeftShoulder1  -0.252513 4.36936 -22.8219
LeftArm  22.5717 42.7863 -27.5889
LeftForeArm  40.755 -61.3452 -16.7418
LeftHand  -0.0333684 6.46833 -0.0541731
RightShoulder  -1.58299 -11.3225 12.9954
RightArm  -82.892 -34.3688 10.6027
RightForeArm  136.156 41.0717 169.109
RightHand  -0.178059 13.4821 -1.52072
LeftUpLeg  -33.4748 18.8623 3.75573
LeftLeg  55.9929 1.70311 3.23931
LeftFoot  -13.2329 0.14217 3.83714
LeftToes  8.91272e-011 -1.70619e-011 7.36378e-012
347
root  57.5137 34.2973 7.32679 164.931 -79.9665 -170.221
RightUpLeg  -5.64759 -1.53762 -12.3637
RightLeg  47.7853 -0.264699 -0.59853
RightFoot  -32.8813 1.60884 9.63323
RightToes  -2.32831e-009 0 -3.6325e-017
Spine  20.4567 -0.165882 -4.23865
Spine1  -4.9701 -4.38822 24.6253
HEad  -49.2875 30.8784 -27.1036
LeftShoulder1  -0.228958 4.29765 -22.4228
LeftArm  21.1988 44.492 -26.607
LeftForeArm  44.3601 -62.8139 -17.6101
LeftHand  -0.0434977 5.76788 -2.16836
RightShoulder  -1.88066 -11.6113 16.2114
RightArm  -84.2311 -30.0999 12.9626
RightForeArm  136.951 42.7562 168.602
RightHand  -0.0976086 12.1547 -1.15602
LeftUpLeg  -32.2736 11.9814 2.96927
LeftLeg  53.8742 1.06499 2.06405
LeftFoot  -13.0846 0.145712 4.44168
LeftToes  8.91272e-011 -1.70619e-011 7.36378e-012
348
root  56.7349 35.2121 7.11018 -30.6945 -89.4978 26.6174
RightUpLeg  1.257 -7.965 -11.465
RightLeg  40.0345 -4.22934 -4.05015
RightFoot  -29.6775 1.71577 11.8808
RightToes  -2.32831e-009 0 -3.6325e-017
Spine  17.7809 1.03406 -3.88478
Spine1  -7.98779 -2.14088 23.0839
HEad  -46.2228 17.4194 -20.5557
LeftShoulder1  -0.217229 4.23558 -23.4045
LeftArm  21.9782 40.6862 -24.2895
LeftForeArm  46.0594 -65.1298 -19.651
LeftHand  -0.062437 6.06548 -4.30219
RightShoulder  -1.89725 -11.1881 17.8131
RightArm  -83.0676 -23.3185 14.2238
RightForeArm  136.477 47.1823 167.008
RightHand  -0.350307 9.44323 -3.0801
LeftUpLeg  -30.5355 3.77703 1.77227
LeftLeg  48.0917 -0.359116 0.0484514
LeftFoot  -10.903 0.0415569 5.23753
LeftToes  8.91272e-011 -1.70619e-011 7.36378e-012
349
root  56.0111 36.4715 6.87535 5.01814 -79.4156 -6.93814
RightUpLeg  6.61848 -14.3289 -11.0609
RightLeg  31.0166 -8.50452 -5.80627
RightFoot  -23.0754 1.23978 13.5082
RightToes  -2.32831e-009 0 -3.6325e-017
Spine  15.5724 3.03353 -1.42949
Spine1  -12.4381 1.68286 15.3146
HEad  -41.3903 0.844517 -13.3348
LeftShoulder1  -0.00868217 3.52679 -22.9062
LeftArm  23.935 32.524 -24.2152
LeftForeArm  43.5842 -66.4344 -21.4468
LeftHand  -0.0763862 6.27349 -4.84361
RightShoulder  -1.6292 -10.0727 17.9646
RightArm  -78.4874 -14.0617 12.7097
RightForeArm  135.198 58.6804 160.868
RightHand  -0.105874 8.19843 -1.28051
LeftUpLeg  -27.8063 -2.26858 0.3792
LeftLeg  38.8491 -3.24156 -2.40278
LeftFoot  -6.85413 -0.171899 5.57874
LeftToes  8.91272e-011 -1.70619e-011 7.36378e-012
350
root  55.423 37.6909 6.71563 0.172729 -71.7724 0.294067
RightUpLeg  9.93881 -20.3301 -11.0646
RightLeg  23.3979 -11.8778 -5.44783
RightFoot  -14.6493 0.311799 14.3523
RightToes  -2.32831e-009 0 -3.6325e-017
Spine  12.6203 5.41623 4.40518
Spine1  -14.0002 5.52012 1.69791
HEad  -37.4337 -17.5121 -5.28194
LeftShoulder1  0.201653 2.7788 -21.2359
LeftArm  23.7333 20.6296 -29.5259
LeftForeArm  42.3941 -65.8608 -20.9177
LeftHand  -0.085859 6.57245 -4.45445
RightShoulder  -1.19271 -8.7326 15.6244
RightArm  -73.6928 -0.364488 9.8637
RightForeArm  108.254 75.6173 120.523
RightHand  -0.0616524 5.21396 -1.02217
LeftUpLeg  -24.5714 -6.53561 -0.342659
LeftLeg  28.2328 -7.02738 -3.76497
LeftFoot  -1.99301 -0.31386 4.02955
LeftToes  8.91272e-011 -1.70619e-011 7.36378e-012
351
root  54.9268 38.6437 6.6527 1.89644 -65.4292 0.119461
RightUpLeg  12.8569 -22.9416 -11.0199
RightLeg  17.2968 -16.2382 -2.44598
RightFoot  -6.85039 -0.620088 14.8024
RightToes  -2.32831e-009 0 -3.6325e-017
Spine  10.2801 7.18221 12.3993
Spine1  -12.949 8.6729 -13.3321
HEad  -33.7433 -31.4607 0.666765
LeftShoulder1  0.227516 2.66467 -20.6252
LeftArm  23.2084 9.78087 -35.4765
LeftForeArm  47.7593 -67.1742 -21.8016
LeftHand  -0.0603515 5.95458 -4.01045
RightShoulder  -0.508104 -6.61288 8.96481
RightArm  -71.5553 14.6244 6.22345
RightForeArm  30.1522 60.1539 17.458
RightHand  0.0268044 3.88297 -0.0962713
LeftUpLeg  -21.0251 -8.8872 -0.458344
LeftLeg  18.5012 -11.8766 -3.88272
LeftFoot  2.61954 -0.246039 1.88664
LeftToes  8.91272e-011 -1.70619e-011 7.36378e-012
